<?xml version="1.0" encoding="utf-8"?>
<!-- Generator: Adobe Illustrator 16.0.0, SVG Export Plug-In . SVG Version: 6.00 Build 0)  -->
<!DOCTYPE svg PUBLIC "-//W3C//DTD SVG 1.1//EN" "http://www.w3.org/Graphics/SVG/1.1/DTD/svg11.dtd">
<svg version="1.1" id="Layer_1" xmlns="http://www.w3.org/2000/svg" xmlns:xlink="http://www.w3.org/1999/xlink" x="0px" y="0px"
	 width="932.204px" height="333.644px" viewBox="0 0 932.204 333.644" enable-background="new 0 0 932.204 333.644"
	 xml:space="preserve">
<g>
	<path fill="#1B75BB" d="M396.174,151.215c0-48.079,35.614-83.1,86.463-83.1c42.541,0,68.854,25.128,68.854,60.941
		c0,48.079-35.612,83.101-86.462,83.101C422.49,212.156,396.174,187.026,396.174,151.215z M511.922,131.429
		c0-18.401-11.873-30.866-32.647-30.866c-27.106,0-43.529,22.161-43.529,48.278c0,18.4,11.872,30.866,32.647,30.866
		C495.499,179.707,511.922,157.546,511.922,131.429z"/>
	<path fill="#FFDD15" d="M613.428,101.157l-6.133,30.47h61.138L662.3,161.9h-60.941l-9.495,47.486h-39.178l27.7-138.5h108.427
		l-6.136,30.272H613.428z"/>
	<path fill="#EE4036" d="M919.718,70.885l-72.615,138.5h-41.944l-10.09-83.497l-44.123,83.497h-42.145l-17.015-138.5h38.582
		l10.687,88.442l46.693-88.442h36.208l9.891,89.629l47.089-89.629H919.718z"/>
</g>
<g>
	<path fill="#404041" d="M446.32,240.681c0,11.331-8.104,18.17-21.149,18.17h-10.827l-2.596,12.789h-8.231l8.864-44.319h17.097
		C440.178,227.32,446.32,232.259,446.32,240.681z M438.024,241.439c0-4.813-3.419-7.155-9.434-7.155h-9.37l-3.482,17.603h9.75
		C433.466,251.887,438.024,248.276,438.024,241.439z"/>
	<path fill="#404041" d="M460.631,257.205c0-11.333,8.357-19.755,20.07-19.755c10.003,0,16.463,5.826,16.463,14.814
		c0,11.335-8.423,19.818-20.135,19.818C467.088,272.083,460.631,266.131,460.631,257.205z M489.186,252.646
		c0-5.256-3.229-8.486-8.928-8.486c-6.71,0-11.648,5.193-11.648,12.665c0,5.255,3.229,8.483,8.926,8.483
		C484.248,265.309,489.186,260.116,489.186,252.646z"/>
	<path fill="#404041" d="M572.446,237.83l-18.868,33.81h-7.787l-4.557-23.301l-13.235,23.301h-7.662l-6.204-33.81h7.221
		l4.304,24.883l14.119-24.883h6.774l4.496,24.883l13.931-24.883H572.446z"/>
	<path fill="#404041" d="M617.214,257.078h-26.848c0.128,5.38,3.23,8.293,9.751,8.293c3.861,0,7.409-1.266,9.752-3.481l3.291,5.509
		c-3.544,3.164-8.675,4.685-13.866,4.685c-10.193,0-16.651-5.888-16.651-14.878c0-11.462,8.169-19.755,19.5-19.755
		c9.374,0,15.578,5.572,15.578,14.814C617.721,253.976,617.532,255.622,617.214,257.078z M591.065,251.822h19.375
		c0.061-5.191-3.419-8.04-8.675-8.04C596.381,243.782,592.52,246.885,591.065,251.822z"/>
	<path fill="#404041" d="M660.268,237.45l-1.455,7.533c-0.698-0.124-1.205-0.188-1.964-0.188c-6.204,0-10.319,3.166-11.713,10.193
		l-3.355,16.651h-7.915l6.714-33.81h7.533l-0.888,4.369C650.328,238.653,654.57,237.45,660.268,237.45z"/>
	<path fill="#404041" d="M704.337,253.342c0-15.004,10.828-26.656,27.29-26.656c7.599,0,13.738,2.596,16.84,7.409l-5.95,5.003
		c-2.407-3.357-6.204-5.193-11.46-5.193c-11.335,0-18.427,8.548-18.427,18.931c0,7.345,4.813,12.221,13.866,12.221
		c4.942,0,9.246-1.646,12.601-5.129l4.813,5.191c-4.307,4.938-10.7,7.156-18.045,7.156
		C712.377,272.274,704.337,264.548,704.337,253.342z"/>
	<path fill="#404041" d="M770.377,224.66h7.915l-9.373,46.979h-7.912L770.377,224.66z"/>
	<path fill="#404041" d="M831.162,237.83l-6.774,33.81h-7.537l0.76-3.735c-3.103,2.851-7.089,4.179-11.46,4.179
		c-7.28,0-12.219-4.052-12.219-11.459c0-1.268,0.128-2.598,0.442-4.053l3.736-18.741h7.915l-3.736,18.551
		c-0.188,0.95-0.253,1.774-0.253,2.598c0,3.926,2.218,6.14,6.71,6.14c5.638,0,9.627-3.166,10.953-9.75l3.548-17.538H831.162z"/>
	<path fill="#404041" d="M886.563,252.265c0,11.523-8.229,19.818-18.994,19.818c-5.508,0-9.687-1.962-11.841-5.824l-1.076,5.381
		h-7.534l9.37-46.979h7.915l-3.23,16.336c2.789-2.28,6.333-3.546,10.512-3.546C879.981,237.45,886.563,242.895,886.563,252.265z
		 M878.586,252.646c0-5.256-3.23-8.486-8.928-8.486c-6.71,0-11.648,5.193-11.648,12.665c0,5.255,3.227,8.483,8.925,8.483
		C873.649,265.309,878.586,260.116,878.586,252.646z"/>
</g>
<g>
	<path fill="#1B75BB" d="M219.097,44.828l-30.639-4.451l-13.702-27.764l-13.706,27.764l-30.638,4.451l22.174,21.612l-5.234,30.515
		l22.466-11.813c-4.204-1.888-7.138-6.105-7.138-11.013c0-5.061,3.116-9.389,7.534-11.185c-1.615-1.321-2.664-3.303-2.664-5.551
		c0-3.98,3.224-7.207,7.206-7.207c3.979,0,7.206,3.227,7.206,7.207c0,2.248-1.052,4.23-2.664,5.551
		c4.414,1.796,7.53,6.124,7.53,11.185c0,4.908-2.934,9.124-7.138,11.013l22.47,11.813l-5.234-30.515L219.097,44.828z"/>
</g>
<g>
	<path fill="#FFDD15" d="M73.543,207.699c-0.664,4.375-3.805,8.18-8.343,9.445c-4.557,1.272-9.235-0.371-12.063-3.801
		c-0.777,1.922-2.381,3.487-4.535,4.09c-3.68,1.026-7.495-1.123-8.521-4.807c-1.027-3.68,1.123-7.494,4.803-8.521
		c2.011-0.56,4.043-0.149,5.658,0.913c0.389-4.692,3.623-8.867,8.425-10.208c4.539-1.266,9.196,0.36,12.027,3.762l5.124-23.828
		l-26.866,12.718l-25.707-14.926l3.79,29.483L5.196,221.858l29.212,5.505l12.023,27.18l14.266-26.078l29.565-3.038L73.543,207.699z"
		/>
</g>
<g>
	<path fill="#1B75BB" d="M131.767,315.795c-33.629-10.942-63.259-34.906-79.279-65.912l8.696-15.902
		c12.915,31.345,38.86,55.993,71.05,67.171"/>
</g>
<g>
	<path fill="#EE4036" d="M57.997,180.566c3.616-52.137,40.989-95.103,90.375-107.144l0.909-5.315l-8.104-7.9
		c-53.932,14.83-94.293,62.714-97.827,120.419l6.518,3.786L57.997,180.566z"/>
</g>
<g>
	<path fill="#EE4036" d="M276.776,207.699c0.663,4.375,3.804,8.18,8.343,9.445c4.557,1.272,9.235-0.371,12.062-3.801
		c0.777,1.922,2.382,3.487,4.535,4.09c3.68,1.026,7.495-1.123,8.521-4.807c1.027-3.68-1.123-7.494-4.802-8.521
		c-2.011-0.56-4.043-0.149-5.659,0.913c-0.389-4.692-3.623-8.867-8.425-10.208c-4.539-1.266-9.195,0.36-12.026,3.762l-5.124-23.828
		l26.866,12.718l25.707-14.926l-3.79,29.483l22.138,19.839l-29.212,5.505l-12.022,27.18l-14.266-26.078l-29.565-3.038
		L276.776,207.699z"/>
</g>
<g>
	<path fill="#1B75BB" d="M218.551,315.795c33.63-10.942,63.259-34.906,79.279-65.912l-8.696-15.902
		c-12.914,31.345-38.86,55.993-71.049,67.171"/>
</g>
<g>
	<path fill="#FFDD15" d="M292.321,180.566c-3.615-52.137-40.989-95.103-90.375-107.144l-0.909-5.315l8.104-7.9
		c53.932,14.83,94.293,62.714,97.826,120.419l-6.518,3.786L292.321,180.566z"/>
</g>
<g>
	<g>
		<polygon fill="#1B75BB" points="133.611,212.435 146.917,198.879 116.222,160.481 99.664,179.111 		"/>
	</g>
	<g>
		<polygon fill="#1B75BB" points="151.413,196.7 172.521,185.112 140.856,137.918 118.916,156.341 		"/>
	</g>
	<g>
		<polygon fill="#1B75BB" points="177.366,185.536 202.166,172.765 166.936,114.944 142.097,130.673 		"/>
	</g>
	<g>
		<polygon fill="#1B75BB" points="207.71,165.655 227.583,152.409 191.776,97.762 168.592,113.907 		"/>
	</g>
	<g>
		<path fill="#1B75BB" d="M219.947,131.656l-46.428,19.043l-4.07,3.312l-1.872,8.693l5.593,7.038l17.802,4.347l14.558-10.143
			l8.418,14.283c0,0-6.107,5.036-16.148,9.177c-5.66,2.336-12.968,4.138-12.968,4.138l-25.114,51.884l16.284-49.122
			c0,0-18.653,6.75-24.014,11.039c-7.585,6.074-16.558,12.972-16.558,12.972l-22.081-20.839c0,0,1.658,29.392,8.832,45.399
			c4.546,10.139,12.697,17.387,12.697,17.387l0.686,55.689c12.572,3.771,25.889,5.823,39.688,5.823
			c13.957,0,27.422-2.094,40.121-5.946c-0.62-6.961-1.533-15.789-2.665-22.721c-2.209-13.525-5.797-35.605-5.797-35.605l48.3-72.033
			L219.947,131.656z"/>
	</g>
</g>
</svg>
